# xmcd
#
# Track frame offsets: 
#        150
#        11367
#        21516
#        29103
#        39614
#        49855
#        63294
#        72618
#        84942
#        97822
#        111779
#        123307
#        135485
#        146568
#        157765
#        167827
#        175445
#        186366
#        195117
#        205269
#        216318
#        226773
#        237377
#        246906
#
# Disc length: 3449 seconds
#
# Revision: 2
# Processed by: cddbd v1.5.2PL0 Copyright (c) Steve Scherf et al.
# Submitted via: ExactAudioCopyFreeDBPlugin 1.0
#
DISCID=4f0d7718
DTITLE=Jim Reeves - Jim Reeves - Eight Classic Albums - Disc 3
DYEAR=2012
DGENRE=Country
TTITLE0=How Long Has It Been
TTITLE1=A Beautiful Life
TTITLE2=Teach Me How To Pray
TTITLE3=In The Garden
TTITLE4=The Flowers, The Sunset, The Trees
TTITLE5=It Is No Secret (What God Can Do)
TTITLE6=Padre Of Old San Antone
TTITLE7=Precious Memories
TTITLE8=Suppertime
TTITLE9=Whispering Hope
TTITLE10=An Evening Prayer
TTITLE11=God Be With You
TTITLE12=Someday (You'll Want Me To Want You)
TTITLE13=Just Call Me Lonesome
TTITLE14=(Now And Then There's A) Fool Such As I
TTITLE15='Till The End Of The World
TTITLE16=How's The World Treating You
TTITLE17=Throw Another Log On The Fire
TTITLE18=Making Believe
TTITLE19=Satan Can't Hold Me
TTITLE20=Am I Losing You
TTITLE21=Scarlet Ribbons (For Her Hair)
TTITLE22=Dear Hearts And Gentle People
TTITLE23=May The Good Lord Bless And Keep You
EXTD=
EXTT0=
EXTT1=
EXTT2=
EXTT3=
EXTT4=
EXTT5=
EXTT6=
EXTT7=
EXTT8=
EXTT9=
EXTT10=
EXTT11=
EXTT12=
EXTT13=
EXTT14=
EXTT15=
EXTT16=
EXTT17=
EXTT18=
EXTT19=
EXTT20=
EXTT21=
EXTT22=
EXTT23=
PLAYORDER=
